<svg fill="none" height="20" viewBox="0 0 184 20" width="184" xmlns="http://www.w3.org/2000/svg"><path d="m127.363 18c-20.689-4.9751-43.7844-2.2756-64.7173-1.8187-6.0191.1315-12.1774 1.0084-18.1907.6329-.7843-.0488-4.2061-.2317-4.848-1.2095-.0838-.1272 2.5845-.629 3.8808-.8436 2.5205-.4173 5.0399-.7252 7.5584-1.1659 6.6212-1.1581 13.3581-1.7231 20.0372-2.2437 17.1454-1.3351 47.8176-5.44948 64.5736.3528.831.2874-1.736-.0495-2.604-.0762-1.427-.0435-2.853-.1065-4.28-.1569-4.654-.1638-9.347-.4553-14.002-.4094-14.9999.1467-30.0528-.5582-45.0492.0731-4.5124.1902-9.0104.5852-13.5248.7378-2.615.0884-2.4978.1632-5.2003.06-1.1718-.0448-4.4209.3517-3.4942-.4562 1.6322-1.4235 6.7337-1.0674 8.7068-1.3579 9.0089-1.32452 17.9955-3.05423 27.0504-3.98353 23.2173-2.38275 46.8533-2.38835 70.1243-1.39148 9.519.40779 19.137-1.16959 28.616.10485-22.999-3.34105-46.906-2.86668-70.031-2.77009-26.0377.10878-52.0457.11604-78.0836.73315-10.6895.25317-21.1634 2.54289-31.8854 2.37575" stroke="#fa885f" stroke-linecap="round" stroke-linejoin="round" stroke-miterlimit="1.5" stroke-width="2.81804"/></svg>