<svg fill="none" height="56" viewBox="0 0 133 56" width="133" xmlns="http://www.w3.org/2000/svg"><g fill="#f9f9f9"><path d="m17.4105 24.3571-7.0696-21.43058h4.8584l5.1698 16.48268h-1.8997l5.0452-16.48268h3.8307l5.0453 16.48268h-1.8687l5.1387-16.48268h4.8273l-7.0696 21.43058h-3.8307l-5.0764-16.48273h1.8063l-5.0764 16.48273z"/><path d="m52.8079 24.7213c-1.661 0-3.1974-.2833-4.6093-.8499-1.3911-.5666-2.6161-1.3558-3.6749-2.3677-1.0589-1.0118-1.879-2.1855-2.4604-3.5211-.5813-1.3559-.872-2.8129-.872-4.3712 0-1.5784.2907-3.0354.872-4.37106.5814-1.33562 1.3911-2.49922 2.4292-3.49082 1.0381-1.01183 2.2527-1.79094 3.6438-2.33733 1.4119-.56662 2.9483-.84993 4.6093-.84993 1.6402 0 3.1559.28331 4.5469.84993 1.4119.54639 2.6369 1.3255 3.675 2.33733 1.0589.9916 1.879 2.16532 2.4603 3.52117.5814 1.33561.8721 2.79261.8721 4.37111 0 1.5582-.2907 3.0153-.8721 4.3711-.5813 1.3356-1.3911 2.5093-2.4292 3.5212-1.0381.9916-2.2631 1.7707-3.6749 2.3373-1.3911.5666-2.8964.8499-4.5158.8499zm-.0623-4.3407c1.308 0 2.4499-.2833 3.4258-.8499.9966-.5667 1.7648-1.3559 2.3046-2.3677.5398-1.0321.8097-2.2159.8097-3.5516 0-1.0118-.1557-1.9224-.4671-2.7319-.3115-.8297-.7579-1.53798-1.3392-2.12484-.5813-.6071-1.2769-1.06242-2.0866-1.36597-.789-.32379-1.6714-.48568-2.6472-.48568-1.3081 0-2.4604.28331-3.457.84994-.9758.54638-1.7336 1.32549-2.2735 2.33735-.5398.9916-.8097 2.1653-.8097 3.5211 0 1.0119.1557 1.9326.4672 2.7623.3114.8297.7474 1.5481 1.308 2.1552.5813.5869 1.2769 1.0422 2.0866 1.366.8098.3238 1.7025.4857 2.6784.4857z"/><path d="m71.141 15.5238v-3.5212h4.6404c.9758 0 1.7233-.2428 2.2423-.7285.5398-.4857.8097-1.1434.8097-1.97305 0-.76899-.2595-1.40645-.7785-1.91236-.5191-.50592-1.2666-.75888-2.2424-.75888h-4.6715v-3.70329h5.2321c1.4534 0 2.7303.27319 3.8307.81958 1.1004.52615 1.962 1.26479 2.5849 2.21591s.9343 2.04389.9343 3.27833c0 1.25466-.3114 2.35756-.9343 3.30866-.6229.9309-1.4949 1.6594-2.6161 2.1856-1.1211.5261-2.4396.7892-3.9552.7892zm-3.7373 8.8333v-21.43058h4.8896v21.43058zm11.9592 0-6.8516-9.2279 4.4847-1.1839 8.1596 10.4118z"/><path d="m87.2943 24.3571v-21.43058h4.8895v21.43058zm3.7684 0v-4.189h10.8693v4.189z"/><path d="m3.78556 44.456v-3.7559h4.7004c.98845 0 1.74554-.259 2.27134-.7771.5468-.518.8202-1.2196.8202-2.1046 0-.8202-.2629-1.5002-.7887-2.0398-.5257-.5397-1.28284-.8095-2.27129-.8095h-4.73195v-3.9502h5.29978c1.47216 0 2.76556.2914 3.88016.8742 1.1147.5613 1.9875 1.3491 2.6184 2.3637.6309 1.0145.9464 2.1801.9464 3.4969 0 1.3383-.3155 2.5147-.9464 3.5292-.6309.993-1.5142 1.7701-2.6499 2.3313s-2.4711.8418-4.00639.8418zm-3.78556 9.4222v-22.8593h4.95277v22.8593zm12.1138 0-6.9402-9.8431 4.54267-1.2628 8.26513 11.1059z"/><path d="m20.1477 53.8782v-22.8593h4.9528v22.8593zm3.7856 0v-4.4035h12.2084v4.4035zm0-9.5517v-4.2416h11.1043v4.2416zm0-8.9365v-4.3711h12.0507v4.3711z"/><path d="m49.7237 54.2344c-1.6615 0-3.2073-.2915-4.6374-.8743-1.409-.6044-2.6498-1.4462-3.7224-2.5255-1.0516-1.0793-1.8718-2.3313-2.4606-3.7559-.5889-1.4463-.8833-3.0004-.8833-4.6625s.2944-3.2055.8833-4.6302c.5888-1.4462 1.409-2.6982 2.4606-3.7559 1.0515-1.0577 2.2818-1.8779 3.6909-2.4607 1.4301-.6044 2.9759-.9066 4.6373-.9066 1.7666 0 3.3334.2914 4.7004.8742 1.388.5828 2.5973 1.3815 3.6278 2.396l-3.3123 3.4321c-.5889-.6476-1.3039-1.1548-2.1452-1.5218-.8202-.3669-1.7771-.5504-2.8707-.5504-.9674 0-1.8612.1727-2.6814.518-.7992.3238-1.4932.7987-2.0821 1.4247-.5678.626-1.02 1.3815-1.3565 2.2665-.3154.885-.4732 1.8564-.4732 2.9141 0 1.0793.1578 2.0614.4732 2.9464.3365.885.7887 1.6405 1.3565 2.2665.5889.626 1.2829 1.1117 2.0821 1.4571.8202.3453 1.714.518 2.6814.518 1.1357 0 2.1241-.1835 2.9654-.5504.8412-.367 1.5668-.8742 2.1767-1.5218l3.3439 3.4321c-1.0726 1.0145-2.3029 1.8132-3.691 2.396-1.367.5828-2.9548.8743-4.7634.8743z"/><path d="m70.6431 54.2667c-1.6825 0-3.2388-.3022-4.6689-.9066-1.4091-.6044-2.6499-1.4462-3.7225-2.5255-1.0725-1.0793-1.9033-2.3313-2.4921-3.7559-.5889-1.4463-.8833-3.0004-.8833-4.6625 0-1.6837.2944-3.2379.8833-4.6625.5888-1.4247 1.409-2.6659 2.4606-3.7236 1.0515-1.0793 2.2818-1.9103 3.6909-2.4931 1.4301-.6044 2.9864-.9066 4.6689-.9066 1.6614 0 3.1966.3022 4.6057.9066 1.4301.5828 2.6709 1.4138 3.7225 2.4931 1.0726 1.0577 1.9033 2.3097 2.4921 3.7559.5889 1.4247.8833 2.9789.8833 4.6626 0 1.6621-.2944 3.2162-.8833 4.6625-.5888 1.4246-1.409 2.6766-2.4606 3.7559-1.0515 1.0577-2.2923 1.8887-3.7224 2.4931-1.4091.6044-2.9338.9066-4.5742.9066zm-.0631-4.6301c1.3249 0 2.4816-.3022 3.4701-.9066 1.0094-.6044 1.7876-1.4462 2.3344-2.5255.5468-1.1009.8202-2.3637.8202-3.7883 0-1.0793-.1577-2.0507-.4732-2.9141-.3155-.885-.7676-1.6405-1.3565-2.2665-.5889-.6476-1.2934-1.1332-2.1136-1.457-.7992-.3454-1.693-.5181-2.6814-.5181-1.325 0-2.4922.3022-3.5017.9066-.9884.5828-1.7561 1.4139-2.3029 2.4932-.5468 1.0577-.8202 2.3096-.8202 3.7559 0 1.0793.1578 2.0614.4732 2.9464.3155.885.7571 1.6513 1.325 2.2989.5888.626 1.2934 1.1117 2.1136 1.457.8202.3454 1.7245.5181 2.713.5181z"/><path d="m89.2132 44.456v-3.7559h4.7004c.9885 0 1.7456-.259 2.2714-.7771.5468-.518.8202-1.2196.8202-2.1046 0-.8202-.2629-1.5002-.7887-2.0398-.5258-.5397-1.2829-.8095-2.2713-.8095h-4.732v-3.9502h5.2998c1.4722 0 2.7656.2914 3.8802.8742 1.1147.5613 1.9878 1.3491 2.6188 2.3637.63 1.0145.946 2.1801.946 3.4969 0 1.3383-.316 2.5147-.946 3.5292-.631.993-1.5147 1.7701-2.6503 2.3313-1.1357.5612-2.4712.8418-4.0064.8418zm-3.7855 9.4222v-22.8593h4.9527v22.8593zm12.1138 0-6.9402-9.8431 4.5426-1.2628 8.2651 11.1059z"/></g><path d="m116.552 5.19116h3.66769v3.66769h-3.66769z" fill="#fff"/><path d="m116.552 12.5269h3.66769v3.66769h-3.66769z" fill="#fff"/><path d="m116.552 8.85864h3.66769v3.66769h-3.66769z" fill="#000"/><path d="m116.552 16.1941h3.66769v3.66769h-3.66769z" fill="#000"/><path d="m120.22 5.19116h3.66769v3.66769h-3.66769z" fill="#000"/><path d="m120.22 12.5269h3.66769v3.66769h-3.66769z" fill="#000"/><path d="m120.22 8.85864h3.66769v3.66769h-3.66769z" fill="#fff"/><path d="m120.22 16.1941h3.66769v3.66769h-3.66769z" fill="#fff"/><path d="m123.887 5.19116h3.66769v3.66769h-3.66769z" fill="#fff"/><path d="m123.887 12.5269h3.66769v3.66769h-3.66769z" fill="#fff"/><path d="m123.887 8.85864h3.66769v3.66769h-3.66769z" fill="#000"/><path d="m123.887 16.1941h3.66769v3.66769h-3.66769z" fill="#000"/><path d="m116.552 19.8618h3.66769v3.66769h-3.66769z" fill="#fff"/><path d="m116.552 27.1975h3.66769v3.66769h-3.66769z" fill="#fff"/><path d="m116.552 23.5295h3.66769v3.66769h-3.66769z" fill="#000"/><path d="m116.552 30.8647h3.66769v3.66769h-3.66769z" fill="#000"/><path d="m120.22 19.8618h3.66769v3.66769h-3.66769z" fill="#000"/><path d="m120.22 27.1975h3.66769v3.66769h-3.66769z" fill="#000"/><path d="m120.22 23.5295h3.66769v3.66769h-3.66769z" fill="#fff"/><path d="m120.22 30.8647h3.66769v3.66769h-3.66769z" fill="#fff"/><path d="m123.887 19.8618h3.66769v3.66769h-3.66769z" fill="#fff"/><path d="m123.887 27.1975h3.66769v3.66769h-3.66769z" fill="#fff"/><path d="m123.887 23.5295h3.66769v3.66769h-3.66769z" fill="#000"/><path d="m123.887 30.8647h3.66769v3.66769h-3.66769z" fill="#000"/><path d="m116.552 34.5325h3.66769v3.66769h-3.66769z" fill="#fff"/><path d="m116.552 41.8679h3.66769v3.66769h-3.66769z" fill="#fff"/><path d="m116.552 38.2004h3.66769v3.66769h-3.66769z" fill="#000"/><path d="m116.552 45.5356h3.66769v3.66769h-3.66769z" fill="#000"/><path d="m120.22 34.5325h3.66769v3.66769h-3.66769z" fill="#000"/><path d="m120.22 41.8679h3.66769v3.66769h-3.66769z" fill="#000"/><path d="m120.22 38.2004h3.66769v3.66769h-3.66769z" fill="#fff"/><path d="m120.22 45.5356h3.66769v3.66769h-3.66769z" fill="#fff"/><path d="m123.887 34.5325h3.66769v3.66769h-3.66769z" fill="#fff"/><path d="m123.887 41.8679h3.66769v3.66769h-3.66769z" fill="#fff"/><path d="m123.887 38.2004h3.66769v3.66769h-3.66769z" fill="#000"/><path d="m123.887 45.5356h3.66769v3.66769h-3.66769z" fill="#000"/><path d="m116.552 49.2036h3.66769v3.66769h-3.66769z" fill="#fff"/><path d="m120.22 49.2036h3.66769v3.66769h-3.66769z" fill="#000"/><path d="m123.887 49.2036h3.66769v3.66769h-3.66769z" fill="#fff"/><path d="m114.107 2.74585h11.461c2.448 0 4.432 1.98419 4.432 4.43182v41.26143c0 2.4476-1.984 4.4318-4.432 4.4318h-11.461z" stroke="#f9f9f9" stroke-width="4.89025"/></svg>