<svg fill="none" height="27" viewBox="0 0 27 27" width="27" xmlns="http://www.w3.org/2000/svg"><path d="m7.88505 25.3869h-3.53103c-.62433 0-1.22308-.2481-1.66454-.6895-.44147-.4415-.68948-1.0402-.68948-1.6646v-8.239c0-.6243.24801-1.2231.68948-1.6646.44146-.4414 1.04021-.6894 1.66454-.6894h3.53103m8.23905-2.3541v-4.70799c0-.93649-.372-1.83462-1.0342-2.49682-.6622-.66219-1.5603-1.03421-2.4968-1.03421l-4.70805 10.59312v12.9471h13.27665c.5677.0064 1.1186-.1926 1.5512-.5603s.7177-.8793.8028-1.4407l1.6243-10.593c.0512-.3374.0285-.6819-.0667-1.0096-.0951-.3277-.2604-.6308-.4843-.8883-.2239-.2576-.5012-.4633-.8125-.603-.3113-.1398-.6493-.2101-.9905-.2063z" stroke="#fff" stroke-linecap="round" stroke-linejoin="round" stroke-width="2.35402"/></svg>